<svg width="893" height="124" viewBox="0 0 893 124" fill="none" xmlns="http://www.w3.org/2000/svg">
<path d="M117.412 87.3927C112.034 98.3104 103.326 107.284 92.5155 113.048C81.7046 118.813 69.336 121.078 57.1544 119.522C44.9724 117.967 33.5915 112.671 24.6162 104.382C15.6408 96.0914 9.52368 85.2254 7.12735 73.3153C4.73103 61.4055 6.17629 49.0522 11.2595 37.9973C16.3426 26.9425 24.8072 17.7439 35.4596 11.6984C46.1124 5.65298 58.4158 3.06545 70.6349 4.30107C82.8541 5.53628 94.3729 10.5322 103.567 18.5845C96.2261 26.7776 83.3981 26.8621 72.5604 24.6251C71.2549 24.3554 69.9316 24.1522 68.5955 24.0171C60.5518 23.2038 52.4523 24.9071 45.44 28.8869C38.4273 32.8664 32.8551 38.922 29.5089 46.199C26.1626 53.4764 25.2112 61.6087 26.7887 69.4489C28.366 77.2894 32.3929 84.4424 38.3014 89.8998C44.21 95.3568 51.7019 98.8429 59.7213 99.8668C67.7407 100.89 75.8827 99.3999 82.9994 95.6049C84.1811 94.9749 85.3253 94.2861 86.4269 93.5434C95.5736 87.3759 107.458 82.6008 117.412 87.3927Z" fill="#735DF3"/>
<path d="M57.7525 70.401C68.4127 63.1449 81.3727 59.9571 94.2292 61.4281C103.931 62.5385 113.076 66.2445 120.72 72.0664C124.529 74.9673 123.565 80.5786 119.329 82.8262C113.601 76.591 102.453 76.5424 94.7641 78.8484C91.0064 80.2631 86.2015 83.5387 81.8953 87.2912C76.619 91.8893 68.4312 93.2481 63.4708 88.3183C57.3913 82.2765 51.7576 74.4817 57.7525 70.401Z" fill="#735DF3"/>
<path d="M164.265 120C150.146 120 139.313 113.863 133.836 102.793L148.198 95.0913C150.876 100.266 155.866 104.357 164.021 104.357C174.245 104.357 181.183 97.2573 181.183 85.5851V84.5021C177.897 88.5934 172.054 91.722 163.534 91.722C146.616 91.722 133.105 78.7261 133.105 61.0373C133.105 43.8299 147.224 29.751 165.725 29.751C184.591 29.751 198.466 43.1079 198.466 61.0373V85.1037C198.466 106.282 183.861 120 164.265 120ZM165.482 75.5975C174.123 75.5975 180.939 69.2199 180.939 60.6763C180.939 52.1328 174.123 45.8755 165.482 45.8755C156.962 45.8755 150.146 52.1328 150.146 60.6763C150.146 69.2199 156.962 75.5975 165.482 75.5975ZM239.711 92.5643C222.184 92.5643 209.891 78.3651 209.891 61.0373C209.891 43.9502 224.009 29.6307 242.51 29.6307C261.376 29.6307 275.252 43.1079 275.252 61.0373V91H258.82V84.0207C254.56 89.3154 247.987 92.5643 239.711 92.5643ZM242.51 76.5602C251.395 76.5602 257.968 69.5809 257.968 61.1577C257.968 52.7344 251.395 45.7552 242.51 45.7552C233.625 45.7552 227.174 52.7344 227.174 61.1577C227.174 69.5809 233.625 76.5602 242.51 76.5602ZM321.121 46.3568C311.384 46.3568 307.002 54.1784 307.002 63.3236V91H289.719V61.278C289.719 43.9502 300.064 29.751 321.121 29.751C342.178 29.751 352.767 43.8299 352.767 61.278V91H335.483V63.3236C335.483 54.1784 330.98 46.3568 321.121 46.3568ZM396.794 92.6847C378.293 92.6847 364.174 78.4855 364.174 61.278C364.174 42.7469 377.076 29.751 395.82 29.751C401.906 29.751 407.748 31.917 412.13 35.4066L412.252 4H429.535V61.278C429.535 79.3278 415.66 92.6847 396.794 92.6847ZM396.794 76.5602C405.679 76.5602 412.252 69.7012 412.252 61.278C412.252 52.8548 405.679 45.8755 396.794 45.8755C387.909 45.8755 381.458 52.8548 381.458 61.278C381.458 69.7012 387.909 76.5602 396.794 76.5602ZM473.577 92.5643C455.076 92.5643 440.957 78.3651 440.957 61.0373C440.957 43.8299 455.198 29.6307 473.577 29.6307C492.199 29.6307 506.318 43.9502 506.318 61.0373C506.318 78.3651 492.078 92.5643 473.577 92.5643ZM473.577 76.5602C482.462 76.5602 489.035 69.5809 489.035 61.1577C489.035 52.7344 482.462 45.7552 473.577 45.7552C464.692 45.7552 458.241 52.7344 458.241 61.1577C458.241 69.5809 464.692 76.5602 473.577 76.5602Z" fill="#735DF3"/>
<rect x="532.318" y="16.5" width="360" height="91" rx="23" fill="#F6F6F6"/>
<path d="M579.458 86.34C575.865 86.34 572.715 85.71 570.008 84.45C567.302 83.1433 565.202 81.3233 563.708 78.99C562.215 76.6567 561.468 73.9267 561.468 70.8H568.818C568.865 72.5733 569.285 74.2067 570.078 75.7C570.918 77.1467 572.108 78.3133 573.648 79.2C575.235 80.04 577.172 80.46 579.458 80.46C581.418 80.46 583.098 80.1333 584.498 79.48C585.945 78.8267 587.042 77.94 587.788 76.82C588.535 75.6533 588.908 74.3233 588.908 72.83C588.908 71.1033 588.512 69.68 587.718 68.56C586.925 67.44 585.852 66.53 584.498 65.83C583.192 65.0833 581.652 64.43 579.878 63.87C578.152 63.31 576.332 62.7033 574.418 62.05C570.545 60.79 567.652 59.1567 565.738 57.15C563.872 55.1433 562.938 52.53 562.938 49.31C562.938 46.5567 563.592 44.1767 564.898 42.17C566.205 40.1167 568.025 38.53 570.358 37.41C572.738 36.2433 575.538 35.66 578.758 35.66C581.932 35.66 584.708 36.2433 587.088 37.41C589.468 38.5767 591.335 40.1867 592.688 42.24C594.042 44.2933 594.718 46.6967 594.718 49.45H587.298C587.298 48.19 586.972 46.9533 586.318 45.74C585.665 44.5267 584.685 43.5467 583.378 42.8C582.072 42.0067 580.462 41.61 578.548 41.61C576.962 41.5633 575.538 41.82 574.278 42.38C573.018 42.94 572.038 43.7567 571.338 44.83C570.638 45.9033 570.288 47.1867 570.288 48.68C570.288 50.1733 570.592 51.3867 571.198 52.32C571.852 53.2067 572.785 53.9767 573.998 54.63C575.212 55.2833 576.612 55.89 578.198 56.45C579.832 56.9633 581.628 57.5467 583.588 58.2C586.015 58.9933 588.162 59.9733 590.028 61.14C591.942 62.26 593.435 63.73 594.508 65.55C595.628 67.3233 596.188 69.61 596.188 72.41C596.188 74.8367 595.558 77.1 594.298 79.2C593.038 81.3 591.172 83.0267 588.698 84.38C586.225 85.6867 583.145 86.34 579.458 86.34ZM622.572 86.34C619.119 86.34 615.992 85.6633 613.192 84.31C610.392 82.91 608.152 80.81 606.472 78.01C604.839 75.1633 604.022 71.5467 604.022 67.16V36.5H611.022V67.23C611.022 70.17 611.512 72.5967 612.492 74.51C613.472 76.3767 614.826 77.7767 616.552 78.71C618.326 79.5967 620.379 80.04 622.712 80.04C625.092 80.04 627.146 79.5967 628.872 78.71C630.599 77.7767 631.929 76.3767 632.862 74.51C633.842 72.5967 634.332 70.17 634.332 67.23V36.5H641.332V67.16C641.332 71.5467 640.492 75.1633 638.812 78.01C637.132 80.81 634.869 82.91 632.022 84.31C629.176 85.6633 626.026 86.34 622.572 86.34ZM651.065 85.5V36.5H667.795C671.715 36.5 674.935 37.1533 677.455 38.46C679.975 39.7667 681.842 41.5167 683.055 43.71C684.268 45.9033 684.875 48.4 684.875 51.2C684.875 53.86 684.268 56.31 683.055 58.55C681.888 60.7433 680.045 62.5167 677.525 63.87C675.005 65.1767 671.762 65.83 667.795 65.83H658.065V85.5H651.065ZM658.065 60.02H667.515C671.202 60.02 673.815 59.2267 675.355 57.64C676.942 56.0067 677.735 53.86 677.735 51.2C677.735 48.3533 676.942 46.16 675.355 44.62C673.815 43.08 671.202 42.31 667.515 42.31H658.065V60.02ZM692.423 85.5V36.5H709.153C713.073 36.5 716.293 37.1533 718.813 38.46C721.333 39.7667 723.199 41.5167 724.413 43.71C725.626 45.9033 726.233 48.4 726.233 51.2C726.233 53.86 725.626 56.31 724.413 58.55C723.246 60.7433 721.403 62.5167 718.883 63.87C716.363 65.1767 713.119 65.83 709.153 65.83H699.423V85.5H692.423ZM699.423 60.02H708.873C712.559 60.02 715.173 59.2267 716.713 57.64C718.299 56.0067 719.093 53.86 719.093 51.2C719.093 48.3533 718.299 46.16 716.713 44.62C715.173 43.08 712.559 42.31 708.873 42.31H699.423V60.02ZM755.83 86.34C751.117 86.34 746.963 85.29 743.37 83.19C739.823 81.0433 737.023 78.08 734.97 74.3C732.963 70.4733 731.96 66.04 731.96 61C731.96 56.0067 732.963 51.62 734.97 47.84C737.023 44.0133 739.823 41.0267 743.37 38.88C746.963 36.7333 751.117 35.66 755.83 35.66C760.637 35.66 764.837 36.7333 768.43 38.88C772.023 41.0267 774.8 44.0133 776.76 47.84C778.767 51.62 779.77 56.0067 779.77 61C779.77 66.04 778.767 70.4733 776.76 74.3C774.8 78.08 772.023 81.0433 768.43 83.19C764.837 85.29 760.637 86.34 755.83 86.34ZM755.9 80.11C759.26 80.11 762.2 79.34 764.72 77.8C767.24 76.26 769.177 74.0667 770.53 71.22C771.93 68.3733 772.63 64.9667 772.63 61C772.63 57.0333 771.93 53.6267 770.53 50.78C769.177 47.9333 767.24 45.7633 764.72 44.27C762.2 42.73 759.26 41.96 755.9 41.96C752.54 41.96 749.6 42.73 747.08 44.27C744.56 45.7633 742.6 47.9333 741.2 50.78C739.8 53.6267 739.1 57.0333 739.1 61C739.1 64.9667 739.8 68.3733 741.2 71.22C742.6 74.0667 744.56 76.26 747.08 77.8C749.6 79.34 752.54 80.11 755.9 80.11ZM788.194 85.5V36.5H804.784C808.657 36.5 811.831 37.1533 814.304 38.46C816.777 39.7667 818.597 41.5167 819.764 43.71C820.977 45.8567 821.584 48.3067 821.584 51.06C821.584 53.6733 820.977 56.1 819.764 58.34C818.597 60.5333 816.754 62.3067 814.234 63.66C811.714 64.9667 808.494 65.62 804.574 65.62H795.194V85.5H788.194ZM813.954 85.5L803.384 63.73H811.084L822.074 85.5H813.954ZM795.194 60.3H804.294C807.747 60.3 810.291 59.46 811.924 57.78C813.557 56.0533 814.374 53.86 814.374 51.2C814.374 48.4933 813.581 46.3467 811.994 44.76C810.407 43.1733 807.841 42.38 804.294 42.38H795.194V60.3ZM842.055 85.5V42.24H827.565V36.5H863.615V42.24H849.055V85.5H842.055Z" fill="#001B39"/>
</svg>

