<svg width="48" height="32" viewBox="0 0 48 32" fill="none" xmlns="http://www.w3.org/2000/svg">
<rect x="0.5" y="0.5" width="47" height="31" rx="4.5" fill="#F6F6F6"/>
<rect x="0.5" y="0.5" width="47" height="31" rx="4.5" stroke="#D5D5D5"/>
<path d="M23.8491 11.171L21.7781 20.8536H19.273L21.3443 11.171H23.8491ZM34.3878 17.4232L35.7064 13.7871L36.4651 17.4232H34.3878ZM37.1837 20.8536H39.5L37.4765 11.171H35.3398C34.8583 11.171 34.4523 11.4501 34.2726 11.8807L30.514 20.8536H33.1449L33.6671 19.4075H36.8804L37.1837 20.8536ZM30.6445 17.6925C30.6554 15.1372 27.1119 14.9956 27.1357 13.8538C27.1433 13.5068 27.4743 13.1373 28.1978 13.0427C28.5565 12.9966 29.5463 12.9592 30.6682 13.4761L31.107 11.4221C30.5044 11.204 29.7289 10.9941 28.7641 10.9941C26.2877 10.9941 24.5456 12.3094 24.5317 14.1946C24.5158 15.5886 25.776 16.3658 26.7236 16.8301C27.7006 17.3047 28.0279 17.6089 28.0232 18.0329C28.0163 18.6825 27.2442 18.9702 26.5251 18.9812C25.2649 19.0007 24.5345 18.6405 23.9525 18.3692L23.4977 20.4918C24.084 20.7602 25.1642 20.9936 26.2826 21.0056C28.9153 21.0056 30.6367 19.7057 30.6445 17.6925ZM20.2698 11.171L16.2111 20.8536H13.5636L11.5661 13.1262C11.445 12.651 11.3394 12.4763 10.9711 12.2755C10.3688 11.9484 9.37438 11.6424 8.5 11.452L8.55924 11.171H12.8216C13.3645 11.171 13.853 11.5322 13.9773 12.1577L15.0325 17.7611L17.6382 11.171H20.2698Z" fill="#1434CB"/>
</svg>
