<svg width="835" height="521" viewBox="0 0 835 521" fill="none" xmlns="http://www.w3.org/2000/svg">
<g clip-path="url(#clip0_6780_7009)">
<rect width="835" height="521" rx="50" fill="#F6F5FB"/>
<path d="M-110.293 -39.67L419.728 112.471C527.274 143.343 630.918 192.09 726.402 256.711L975.219 425.105L-133.787 187.325L-110.293 -39.67Z" fill="#EFEEFA"/>
<path d="M-119.334 141.225L404.782 226.369C522.273 245.456 636.376 285.287 741.753 344.001L989.649 482.121L-129.556 384.837L-119.334 141.225Z" fill="#E9E6FA"/>
<path d="M-120.567 291.443L401.252 328.851C515.305 337.028 627.11 364.705 731.807 410.679L983.041 521L-120.567 521L-120.567 291.443Z" fill="#F6F5FB"/>
<path d="M-120.567 291.443L401.252 328.851C515.305 337.028 627.11 364.705 731.807 410.679L983.041 521L-120.567 521L-120.567 291.443Z" fill="#001B39" fill-opacity="0.1"/>
<path d="M-120.567 291.443L401.252 328.851C515.305 337.028 627.11 364.705 731.807 410.679L983.041 521L-120.567 521L-120.567 291.443Z" fill="#F6F5FB"/>
<path d="M-120.567 291.443L401.252 328.851C515.305 337.028 627.11 364.705 731.807 410.679L983.041 521L-120.567 521L-120.567 291.443Z" fill="#735DF3" fill-opacity="0.15"/>
<path d="M278.412 285.393C273.034 296.31 264.326 305.284 253.515 311.048C242.705 316.813 230.336 319.078 218.154 317.522C205.972 315.967 194.592 310.671 185.616 302.382C176.641 294.091 170.524 283.225 168.127 271.315C165.731 259.406 167.176 247.052 172.259 235.997C177.343 224.942 185.807 215.744 196.46 209.698C207.112 203.653 219.416 201.065 231.635 202.301C243.854 203.536 255.373 208.532 264.567 216.585C257.226 224.778 244.398 224.862 233.56 222.625C232.255 222.355 230.932 222.152 229.596 222.017C221.552 221.204 213.452 222.907 206.44 226.887C199.427 230.866 193.855 236.922 190.509 244.199C187.163 251.476 186.211 259.609 187.789 267.449C189.366 275.289 193.393 282.442 199.301 287.9C205.21 293.357 212.702 296.843 220.721 297.867C228.741 298.89 236.883 297.4 243.999 293.605C245.181 292.975 246.325 292.286 247.427 291.543C256.574 285.376 268.458 280.601 278.412 285.393Z" fill="#8F7DF5"/>
<path d="M218.753 268.401C229.413 261.145 242.373 257.957 255.23 259.428C264.931 260.538 274.077 264.245 281.72 270.066C285.529 272.967 284.566 278.579 280.329 280.826C274.601 274.591 263.453 274.542 255.765 276.848C252.007 278.263 247.202 281.539 242.896 285.291C237.62 289.889 229.432 291.248 224.471 286.318C218.392 280.277 212.758 272.482 218.753 268.401Z" fill="#8F7DF5"/>
<path d="M325.265 318C311.146 318 300.313 311.863 294.836 300.793L309.198 293.091C311.876 298.266 316.867 302.357 325.021 302.357C335.246 302.357 342.183 295.257 342.183 283.585V282.502C338.897 286.593 333.055 289.722 324.535 289.722C307.616 289.722 294.106 276.726 294.106 259.037C294.106 241.83 308.225 227.751 326.725 227.751C345.591 227.751 359.467 241.108 359.467 259.037V283.104C359.467 304.282 344.861 318 325.265 318ZM326.482 273.598C335.124 273.598 341.94 267.22 341.94 258.676C341.94 250.133 335.124 243.876 326.482 243.876C317.962 243.876 311.146 250.133 311.146 258.676C311.146 267.22 317.962 273.598 326.482 273.598ZM400.711 290.564C383.184 290.564 370.891 276.365 370.891 259.037C370.891 241.95 385.01 227.631 403.511 227.631C422.376 227.631 436.252 241.108 436.252 259.037V289H419.82V282.021C415.56 287.315 408.988 290.564 400.711 290.564ZM403.511 274.56C412.396 274.56 418.968 267.581 418.968 259.158C418.968 250.734 412.396 243.755 403.511 243.755C394.625 243.755 388.174 250.734 388.174 259.158C388.174 267.581 394.625 274.56 403.511 274.56ZM482.121 244.357C472.384 244.357 468.002 252.178 468.002 261.324V289H450.719V259.278C450.719 241.95 461.065 227.751 482.121 227.751C503.178 227.751 513.767 241.83 513.767 259.278V289H496.484V261.324C496.484 252.178 491.98 244.357 482.121 244.357ZM557.794 290.685C539.294 290.685 525.175 276.485 525.175 259.278C525.175 240.747 538.076 227.751 556.821 227.751C562.906 227.751 568.749 229.917 573.13 233.407L573.252 202H590.536V259.278C590.536 277.328 576.66 290.685 557.794 290.685ZM557.794 274.56C566.679 274.56 573.252 267.701 573.252 259.278C573.252 250.855 566.679 243.876 557.794 243.876C548.909 243.876 542.458 250.855 542.458 259.278C542.458 267.701 548.909 274.56 557.794 274.56ZM634.577 290.564C616.077 290.564 601.958 276.365 601.958 259.037C601.958 241.83 616.198 227.631 634.577 227.631C653.2 227.631 667.319 241.95 667.319 259.037C667.319 276.365 653.078 290.564 634.577 290.564ZM634.577 274.56C643.463 274.56 650.035 267.581 650.035 259.158C650.035 250.734 643.463 243.755 634.577 243.755C625.692 243.755 619.241 250.734 619.241 259.158C619.241 267.581 625.692 274.56 634.577 274.56Z" fill="#8F7DF5"/>
</g>
<defs>
<clipPath id="clip0_6780_7009">
<rect width="835" height="521" rx="50" fill="white"/>
</clipPath>
</defs>
</svg>
