<svg width="628" height="370" viewBox="0 0 628 370" fill="none" xmlns="http://www.w3.org/2000/svg">
<rect x="9" y="0.5" width="600" height="368" rx="10" fill="#E4EDFD"/>
<g filter="url(#filter0_d_4897_434)">
<g clip-path="url(#clip0_4897_434)">
<g filter="url(#filter1_d_4897_434)">
<path d="M588.836 135H304.164C297.998 135 293 139.999 293 146.167V324.833C293 331.001 297.998 336 304.164 336H588.836C595.002 336 600 331.001 600 324.833V146.167C600 139.999 595.002 135 588.836 135Z" fill="white"/>
</g>
<path d="M552.6 312.59C552.69 311.35 553.63 310.63 554.97 310.63C556.38 310.63 557.15 311.45 557.15 312.49C557.15 313.32 556.63 313.97 555.87 314.14V314.19C556.71 314.39 557.28 315.01 557.28 316.05C557.28 317.17 556.5 318.05 554.99 318.05C553.62 318.05 552.6 317.32 552.49 315.92H553.37C553.46 316.69 554.02 317.28 554.98 317.28C555.95 317.28 556.41 316.71 556.41 315.97C556.41 314.96 555.7 314.56 554.4 314.56H554.17V313.8H554.41C555.62 313.79 556.27 313.42 556.27 312.58C556.27 311.89 555.81 311.41 554.94 311.41C554.09 311.41 553.58 311.89 553.49 312.59H552.6ZM559.229 318V311.6H558.269V310.77H560.149V318H559.229ZM566.608 311.07H567.658L570.168 318H569.208L568.648 316.45H565.608L565.048 318H564.088L566.608 311.07ZM565.868 315.71H568.388L567.128 312.19L565.868 315.71ZM573.656 318.09C572.106 318.09 570.926 316.99 570.926 315.25C570.926 313.52 572.146 312.43 573.696 312.43C575.256 312.43 576.466 313.52 576.466 315.25C576.466 316.99 575.216 318.09 573.656 318.09ZM573.656 317.29C574.606 317.29 575.536 316.64 575.536 315.25C575.536 313.87 574.626 313.22 573.686 313.22C572.726 313.22 571.856 313.87 571.856 315.25C571.856 316.64 572.706 317.29 573.656 317.29ZM581.483 311.31V312.03L580.103 311.18L578.713 312.03V311.31L580.103 310.48L581.483 311.31ZM578.513 312.52V315.61C578.513 316.72 579.123 317.29 580.043 317.29C580.983 317.29 581.613 316.71 581.613 315.53V312.52H582.523V318H581.613V317.19C581.263 317.76 580.593 318.08 579.863 318.08C578.603 318.08 577.613 317.3 577.613 315.73V312.52H578.513ZM584.259 316.5V313.27H583.549V312.52H584.259V311.14H585.169V312.52H586.599V313.27H585.169V316.5C585.169 317.04 585.369 317.23 585.929 317.23H586.599V318H585.779C584.809 318 584.259 317.6 584.259 316.5Z" fill="#666666"/>
<path d="M304.6 312.59C304.69 311.35 305.63 310.63 306.97 310.63C308.38 310.63 309.15 311.45 309.15 312.49C309.15 313.32 308.63 313.97 307.87 314.14V314.19C308.71 314.39 309.28 315.01 309.28 316.05C309.28 317.17 308.5 318.05 306.99 318.05C305.62 318.05 304.6 317.32 304.49 315.92H305.37C305.46 316.69 306.02 317.28 306.98 317.28C307.95 317.28 308.41 316.71 308.41 315.97C308.41 314.96 307.7 314.56 306.4 314.56H306.17V313.8H306.41C307.62 313.79 308.27 313.42 308.27 312.58C308.27 311.89 307.81 311.41 306.94 311.41C306.09 311.41 305.58 311.89 305.49 312.59H304.6ZM311.229 318V311.6H310.269V310.77H312.149V318H311.229ZM319.118 316.18V311.03H320.038V316.18C320.038 317.34 319.258 318.07 318.108 318.07C316.948 318.07 316.168 317.33 316.168 316.11H317.078C317.088 316.75 317.388 317.26 318.108 317.26C318.828 317.26 319.118 316.76 319.118 316.18ZM322.681 312.52V315.61C322.681 316.72 323.291 317.29 324.211 317.29C325.151 317.29 325.781 316.71 325.781 315.53V312.52H326.691V318H325.781V317.19C325.431 317.76 324.761 318.08 324.031 318.08C322.771 318.08 321.781 317.3 321.781 315.73V312.52H322.681ZM328.697 311.63C328.347 311.63 328.077 311.36 328.077 311.01C328.077 310.66 328.347 310.39 328.697 310.39C329.027 310.39 329.297 310.66 329.297 311.01C329.297 311.36 329.027 311.63 328.697 311.63ZM328.227 318V312.52H329.137V318H328.227ZM330.688 318V310.6H331.598V318H330.688Z" fill="#666666"/>
<path d="M304 302H587" stroke="#D5D5D5"/>
<path d="M334.328 180.698C334.497 178.358 336.263 177 338.781 177C341.431 177 342.877 178.547 342.877 180.509C342.877 182.075 341.9 183.302 340.472 183.623V183.717C342.051 184.094 343.122 185.264 343.122 187.226C343.122 189.34 341.656 191 338.819 191C336.244 191 334.328 189.623 334.121 186.981H335.775C335.944 188.434 336.996 189.547 338.8 189.547C340.623 189.547 341.487 188.472 341.487 187.075C341.487 185.17 340.153 184.415 337.71 184.415H337.278V182.981H337.729C340.003 182.962 341.224 182.264 341.224 180.679C341.224 179.377 340.36 178.472 338.725 178.472C337.128 178.472 336.169 179.377 336 180.698H334.328Z" fill="#111111"/>
<path d="M328.821 190.906V187.868H321.868V186.566L328.464 177.396H330.512V186.377H332.391V187.868H330.512V190.906H328.821ZM323.841 186.377H328.896V179.189L323.841 186.377Z" fill="#111111"/>
<path d="M311 190.755V189.529C314.57 186.642 317.952 183.925 317.952 181.133C317.952 179.623 317.295 178.491 315.453 178.491C313.687 178.491 312.785 179.718 312.71 181.435H311.056C311.169 178.529 312.992 177.02 315.435 177.02C317.99 177.02 319.644 178.529 319.644 181.057C319.644 184.453 315.998 187.34 313.574 189.321H320.038V190.755H311Z" fill="#111111"/>
<path d="M423.476 160.949C423.476 162.117 422.45 163.001 420.879 163.001C419.217 163.001 418.048 162.091 417.97 160.793H419.191C419.255 161.481 419.866 162 420.866 162C421.801 162 422.32 161.533 422.32 160.949C422.32 159.364 418.113 160.286 418.113 157.637C418.113 156.546 419.139 155.65 420.723 155.65C422.295 155.65 423.334 156.494 423.411 157.883H422.23C422.178 157.169 421.632 156.65 420.684 156.65C419.814 156.65 419.294 157.065 419.294 157.637C419.294 159.325 423.424 158.403 423.476 160.949Z" fill="#333333"/>
<path d="M413.611 160.935V156.74H412.688V155.766H413.611V153.974H414.792V155.766H416.65V156.74H414.792V160.935C414.792 161.636 415.052 161.883 415.779 161.883H416.65V162.883H415.585C414.325 162.883 413.611 162.364 413.611 160.935Z" fill="#333333"/>
<path d="M409.976 162.884V158.858C409.976 157.403 409.183 156.663 407.988 156.663C406.781 156.663 405.949 157.416 405.949 158.948V162.884H404.768V155.767H405.949V156.78C406.417 156.039 407.274 155.637 408.235 155.637C409.885 155.637 411.144 156.65 411.144 158.689V162.884H409.976Z" fill="#333333"/>
<path d="M399.465 156.65C398.309 156.65 397.348 157.416 397.218 158.806H401.712C401.724 157.416 400.686 156.65 399.465 156.65ZM402.789 160.689C402.426 161.987 401.283 163.001 399.517 163.001C397.491 163.001 395.997 161.572 395.997 159.312C395.997 157.065 397.439 155.65 399.517 155.65C401.582 155.65 402.932 157.104 402.932 159.052C402.932 159.312 402.919 159.52 402.893 159.767H397.205C397.296 161.208 398.309 162 399.517 162C400.582 162 401.257 161.455 401.517 160.689H402.789Z" fill="#333333"/>
<path d="M392.965 162.883V155.766H394.147V162.883H392.965ZM393.576 154.61C393.121 154.61 392.771 154.26 392.771 153.805C392.771 153.351 393.121 153 393.576 153C394.004 153 394.355 153.351 394.355 153.805C394.355 154.26 394.004 154.61 393.576 154.61Z" fill="#333333"/>
<path d="M389.493 162.883V153.272H390.675V162.883H389.493Z" fill="#333333"/>
<path d="M380.887 159.312C380.887 157.078 382.328 155.65 384.354 155.65C386.121 155.65 387.276 156.559 387.64 158.052H386.367C386.121 157.195 385.406 156.65 384.354 156.65C383.056 156.65 382.095 157.572 382.095 159.312C382.095 161.078 383.056 162 384.354 162C385.406 162 386.108 161.494 386.367 160.598H387.64C387.276 162.013 386.121 163.001 384.354 163.001C382.328 163.001 380.887 161.572 380.887 159.312Z" fill="#333333"/>
<path d="M374.812 162.884L373.124 160.234L371.5 162.884H370.267L372.565 159.351L370.267 155.766H371.604L373.293 158.403L374.903 155.766H376.137L373.851 159.286L376.15 162.884H374.812Z" fill="#333333"/>
<path d="M368.827 155.766V162.884H367.645V161.832C367.191 162.572 366.32 162.987 365.372 162.987C363.736 162.987 362.45 161.974 362.45 159.935V155.766H363.619V159.78C363.619 161.221 364.411 161.961 365.606 161.961C366.827 161.961 367.645 161.208 367.645 159.676V155.766H368.827Z" fill="#333333"/>
<path d="M353.02 159.299C353.02 157.078 354.487 155.65 356.396 155.65C357.721 155.65 358.63 156.325 359.046 157.065V155.767H360.241V162.884H359.046V161.559C358.617 162.325 357.695 163.001 356.383 163.001C354.487 163.001 353.02 161.507 353.02 159.299ZM359.046 159.312C359.046 157.663 357.929 156.676 356.63 156.676C355.331 156.676 354.227 157.624 354.227 159.299C354.227 160.974 355.331 161.962 356.63 161.962C357.929 161.962 359.046 160.987 359.046 159.312Z" fill="#333333"/>
<path d="M348.158 156.65C347.002 156.65 346.041 157.416 345.911 158.806H350.405C350.418 157.416 349.379 156.65 348.158 156.65ZM351.483 160.689C351.119 161.987 349.976 163.001 348.21 163.001C346.184 163.001 344.69 161.572 344.69 159.312C344.69 157.065 346.132 155.65 348.21 155.65C350.275 155.65 351.626 157.104 351.626 159.052C351.626 159.312 351.613 159.52 351.587 159.767H345.898C345.989 161.208 347.002 162 348.21 162C349.275 162 349.95 161.455 350.21 160.689H351.483Z" fill="#333333"/>
<path d="M336.731 155.766H338.004L340.225 161.793L342.433 155.766H343.693L340.9 162.884H339.524L336.731 155.766Z" fill="#333333"/>
<path d="M335.304 155.766V162.884H334.122V161.832C333.667 162.572 332.797 162.987 331.849 162.987C330.213 162.987 328.927 161.974 328.927 159.935V155.766H330.096V159.78C330.096 161.221 330.888 161.961 332.083 161.961C333.303 161.961 334.122 161.208 334.122 159.676V155.766H335.304Z" fill="#333333"/>
<path d="M327.162 159.312C327.162 161.572 325.538 163.001 323.512 163.001C321.499 163.001 319.967 161.572 319.967 159.312C319.967 157.065 321.551 155.65 323.564 155.65C325.59 155.65 327.162 157.065 327.162 159.312ZM321.175 159.312C321.175 161.117 322.279 161.962 323.512 161.962C324.746 161.962 325.954 161.117 325.954 159.312C325.954 157.52 324.772 156.676 323.551 156.676C322.305 156.676 321.175 157.52 321.175 159.312Z" fill="#333333"/>
<path d="M316.935 153.817H318.117V162.883H316.935L312.182 155.675V162.883H311V153.817H312.182L316.935 161.012V153.817Z" fill="#333333"/>
<path d="M587 253H580.574H574.149H568.947L558.85 260.168L546.917 268.53L531.379 274.503L516.361 268.53L501.899 279.67L486.325 274.503H472.42H454.512L446.278 289L430.646 284.06L419.58 260.168L405.862 274.503L396.683 268.53L378.324 274.503L360.621 279.67L354.152 284.06H334.263H322.942L310.703 274.503L305 268.53" stroke="#735DF3" stroke-width="1.5" stroke-linejoin="round"/>
</g>
</g>
<g filter="url(#filter2_d_4897_434)">
<g clip-path="url(#clip1_4897_434)">
<path d="M289.891 29H32.1091C26.526 29 22 33.5269 22 39.1111V200.889C22 206.473 26.526 211 32.1091 211H289.891C295.474 211 300 206.473 300 200.889V39.1111C300 33.5269 295.474 29 289.891 29Z" fill="white"/>
<path d="M257.134 181.331C257.224 180.091 258.164 179.371 259.504 179.371C260.914 179.371 261.684 180.191 261.684 181.231C261.684 182.061 261.164 182.711 260.404 182.881V182.931C261.244 183.131 261.814 183.751 261.814 184.791C261.814 185.911 261.034 186.791 259.524 186.791C258.154 186.791 257.134 186.061 257.024 184.661H257.904C257.994 185.431 258.554 186.021 259.514 186.021C260.484 186.021 260.944 185.451 260.944 184.711C260.944 183.691 260.234 183.301 258.934 183.301H258.704V182.541H258.944C260.154 182.531 260.804 182.161 260.804 181.321C260.804 180.631 260.344 180.151 259.474 180.151C258.624 180.151 258.114 180.631 258.024 181.331H257.134ZM263.763 186.741V180.341H262.803V179.511H264.683V186.741H263.763ZM261.984 202.741L261.424 201.191H258.384L257.824 202.741H256.864L259.384 195.811H260.434L262.944 202.741H261.984ZM261.164 200.451L259.904 196.931L258.644 200.451H261.164ZM269.242 199.991C269.242 201.731 267.992 202.831 266.432 202.831C264.882 202.831 263.702 201.731 263.702 199.991C263.702 198.261 264.922 197.171 266.472 197.171C268.032 197.171 269.242 198.261 269.242 199.991ZM264.632 199.991C264.632 201.381 265.482 202.031 266.432 202.031C267.382 202.031 268.312 201.381 268.312 199.991C268.312 198.611 267.402 197.961 266.462 197.961C265.502 197.961 264.632 198.611 264.632 199.991ZM275.299 197.261V202.741H274.389V201.931C274.039 202.501 273.369 202.821 272.639 202.821C271.379 202.821 270.389 202.041 270.389 200.471V197.261H271.289V200.351C271.289 201.461 271.899 202.031 272.819 202.031C273.759 202.031 274.389 201.451 274.389 200.271V197.261H275.299ZM274.259 196.051V196.771L272.879 195.921L271.489 196.771V196.051L272.879 195.221L274.259 196.051ZM277.035 201.241V198.011H276.325V197.261H277.035V195.881H277.945V197.261H279.375V198.011H277.945V201.241C277.945 201.781 278.145 201.971 278.705 201.971H279.375V202.741H278.555C277.585 202.741 277.035 202.341 277.035 201.241Z" fill="#666666"/>
<path d="M32.5609 189.331C32.6509 188.091 33.5909 187.371 34.9309 187.371C36.3409 187.371 37.1109 188.191 37.1109 189.231C37.1109 190.061 36.5909 190.711 35.8309 190.881V190.931C36.6709 191.131 37.2409 191.751 37.2409 192.791C37.2409 193.911 36.4609 194.791 34.9509 194.791C33.5809 194.791 32.5609 194.061 32.4509 192.661H33.3309C33.4209 193.431 33.9809 194.021 34.9409 194.021C35.9109 194.021 36.3709 193.451 36.3709 192.711C36.3709 191.691 35.6609 191.301 34.3609 191.301H34.1309V190.541H34.3709C35.5809 190.531 36.2309 190.161 36.2309 189.321C36.2309 188.631 35.7709 188.151 34.9009 188.151C34.0509 188.151 33.5409 188.631 33.4509 189.331H32.5609ZM39.1896 194.741V188.341H38.2296V187.511H40.1096V194.741H39.1896ZM47.0788 192.921V187.771H47.9988V192.921C47.9988 194.081 47.2188 194.811 46.0688 194.811C44.9088 194.811 44.1288 194.071 44.1288 192.851H45.0387C45.0488 193.491 45.3488 194.001 46.0688 194.001C46.7888 194.001 47.0788 193.501 47.0788 192.921ZM54.6515 189.261V194.741H53.7415V193.931C53.3915 194.501 52.7215 194.821 51.9915 194.821C50.7315 194.821 49.7415 194.041 49.7415 192.471V189.261H50.6415V192.351C50.6415 193.461 51.2515 194.031 52.1715 194.031C53.1115 194.031 53.7415 193.451 53.7415 192.271V189.261H54.6515ZM56.188 194.741V189.261H57.098V194.741H56.188ZM56.658 188.371C56.308 188.371 56.038 188.101 56.038 187.751C56.038 187.401 56.308 187.131 56.658 187.131C56.988 187.131 57.258 187.401 57.258 187.751C57.258 188.101 56.988 188.371 56.658 188.371ZM58.6489 194.741V187.341H59.5589V194.741H58.6489Z" fill="#666666"/>
<path d="M31.9609 181.119H288.228" stroke="#D5D5D5"/>
<path d="M39.8986 79.372V68.6546H38.2998V67.2647H41.4309V79.372H39.8986ZM49.5908 76.1233H50.9898C51.2063 77.3792 52.0057 78.116 53.4047 78.116C55.1701 78.116 56.1194 76.9103 56.0694 73.3602C55.5864 74.3817 54.3873 74.9678 53.0883 74.9678C50.8732 74.9678 49.2244 73.5779 49.2244 71.0158C49.2244 68.7049 50.5901 67.0303 53.1882 67.0303C56.4525 67.0303 57.4018 69.3412 57.4018 73.0923C57.4018 77.128 56.4858 79.3887 53.3214 79.3887C50.9232 79.3887 49.7574 77.8983 49.5908 76.1233ZM53.3381 73.6784C54.787 73.6784 55.8862 72.7239 55.8862 71.0995C55.8862 69.4584 54.9536 68.303 53.2215 68.303C51.656 68.303 50.6734 69.3747 50.6734 70.9823C50.6734 72.5397 51.5394 73.6784 53.3381 73.6784ZM62.0134 73.0755C60.781 72.5899 60.0815 71.6521 60.0815 70.2957C60.0815 68.5207 61.4139 67.0805 64.0286 67.0805C66.6434 67.0805 67.9924 68.5374 67.9924 70.2957C67.9924 71.6019 67.2429 72.6066 66.0605 73.0755C67.4261 73.4942 68.3088 74.5994 68.3088 76.1065C68.3088 78.3002 66.5768 79.7069 64.0286 79.7069C61.4971 79.7069 59.7817 78.3002 59.7817 76.1065C59.7817 74.5827 60.6644 73.4774 62.0134 73.0755ZM64.0286 72.5732C65.5109 72.5732 66.5268 71.7359 66.5268 70.4799C66.5268 69.09 65.5442 68.3532 64.0286 68.3532C62.5464 68.3532 61.5471 69.0733 61.5471 70.4967C61.5471 71.7526 62.563 72.5732 64.0286 72.5732ZM64.0286 73.7454C62.4797 73.7454 61.2307 74.4487 61.2307 76.0563C61.2307 77.4797 62.3132 78.4342 64.0286 78.4342C65.744 78.4342 66.8099 77.4629 66.8099 76.0563C66.8099 74.4989 65.6108 73.7454 64.0286 73.7454ZM71.0382 67.248H78.2829V68.5876H72.4371V72.4057C72.9368 71.7191 74.0027 71.1832 75.1851 71.1832C78.1163 71.1832 79.049 73.31 79.049 75.1855C79.049 77.5299 77.7499 79.4055 74.9353 79.4055C72.5371 79.4055 71.0881 78.0491 70.7884 76.0898H72.2706C72.5537 77.3625 73.5364 78.116 74.952 78.116C76.784 78.116 77.6001 76.8768 77.6001 75.219C77.6001 73.4942 76.7174 72.4894 74.9686 72.4894C73.7529 72.4894 72.8702 73.1258 72.4705 74.0803H71.0382V67.248Z" fill="#111111"/>
<path d="M41.8801 53.1188L44.3613 46.0514H45.449L42.4692 54.2477H41.2796L38.2998 46.0514H39.3988L41.8801 53.1188ZM52.7465 51.0139C52.7465 53.06 51.3302 54.3536 49.5628 54.3536C47.8066 54.3536 46.4697 53.06 46.4697 51.0139C46.4697 48.9795 47.852 47.6977 49.6081 47.6977C51.3755 47.6977 52.7465 48.9795 52.7465 51.0139ZM47.5234 51.0139C47.5234 52.6484 48.4864 53.4128 49.5628 53.4128C50.6391 53.4128 51.6928 52.6484 51.6928 51.0139C51.6928 49.3911 50.6618 48.6267 49.5968 48.6267C48.5091 48.6267 47.5234 49.3911 47.5234 51.0139ZM54.3776 54.2477V45.5458H55.4086V54.2477H54.3776ZM62.9476 47.8036V54.2477H61.9166V53.2952C61.52 53.9655 60.7609 54.3418 59.9338 54.3418C58.5063 54.3418 57.3846 53.4246 57.3846 51.5783V47.8036H58.4043V51.4372C58.4043 52.7425 59.0954 53.4128 60.1378 53.4128C61.2028 53.4128 61.9166 52.7308 61.9166 51.3432V47.8036H62.9476ZM73.9258 54.2477V50.6023C73.9258 49.2853 73.246 48.615 72.2263 48.615C71.184 48.615 70.4702 49.3088 70.4702 50.6964V54.2477H69.4505V50.6023C69.4505 49.2853 68.7707 48.615 67.751 48.615C66.7087 48.615 65.9949 49.3088 65.9949 50.6964V54.2477H64.9639V47.8036H65.9949V48.7326C66.4028 48.0505 67.1392 47.686 67.955 47.686C68.9747 47.686 69.8244 48.1564 70.2323 49.1206C70.5948 48.1916 71.4786 47.686 72.4303 47.686C73.8465 47.686 74.9455 48.6032 74.9455 50.4494V54.2477H73.9258ZM79.5521 48.6032C78.5437 48.6032 77.7053 49.297 77.592 50.5553H81.5122C81.5235 49.297 80.6171 48.6032 79.5521 48.6032ZM82.4525 52.2604C82.1353 53.4363 81.1383 54.3536 79.5974 54.3536C77.8299 54.3536 76.527 53.06 76.527 51.0139C76.527 48.9795 77.7846 47.6977 79.5974 47.6977C81.3989 47.6977 82.5772 49.0148 82.5772 50.7787C82.5772 51.0139 82.5658 51.202 82.5432 51.4255H77.5807C77.66 52.7308 78.5437 53.4481 79.5974 53.4481C80.5265 53.4481 81.1156 52.9542 81.3422 52.2604H82.4525ZM87.1244 51.0021C87.1244 48.9913 88.4047 47.6977 90.0815 47.6977C91.0559 47.6977 91.951 48.2152 92.3815 48.956V45.5458H93.4238V54.2477H92.3815V53.0365C92.0076 53.7538 91.2032 54.3536 90.0702 54.3536C88.4047 54.3536 87.1244 53.0012 87.1244 51.0021ZM92.3815 51.0139C92.3815 49.5204 91.4071 48.6267 90.2741 48.6267C89.1411 48.6267 88.1781 49.4852 88.1781 51.0021C88.1781 52.5191 89.1411 53.4128 90.2741 53.4128C91.4071 53.4128 92.3815 52.5308 92.3815 51.0139ZM98.0815 48.6032C97.0731 48.6032 96.2347 49.297 96.1214 50.5553H100.042C100.053 49.297 99.1465 48.6032 98.0815 48.6032ZM100.982 52.2604C100.665 53.4363 99.6677 54.3536 98.1268 54.3536C96.3593 54.3536 95.0564 53.06 95.0564 51.0139C95.0564 48.9795 96.314 47.6977 98.1268 47.6977C99.9282 47.6977 101.107 49.0148 101.107 50.7787C101.107 51.0139 101.095 51.202 101.073 51.4255H96.1101C96.1894 52.7308 97.0731 53.4481 98.1268 53.4481C99.0558 53.4481 99.645 52.9542 99.8716 52.2604H100.982ZM106.266 52.4838V48.6855H105.461V47.8036H106.266V46.1808H107.297V47.8036H108.917V48.6855H107.297V52.4838C107.297 53.1188 107.523 53.3422 108.158 53.3422H108.917V54.2477H107.988C106.889 54.2477 106.266 53.7773 106.266 52.4838ZM111.473 50.7434V54.2477H110.441V47.8036H111.473V48.8502C111.824 48.1328 112.492 47.686 113.478 47.686V48.7914H113.206C112.22 48.7914 111.473 49.25 111.473 50.7434ZM114.558 51.0021C114.558 48.9913 115.839 47.6977 117.504 47.6977C118.66 47.6977 119.453 48.3092 119.816 48.9795V47.8036H120.858V54.2477H119.816V53.0483C119.442 53.7421 118.637 54.3536 117.493 54.3536C115.839 54.3536 114.558 53.0012 114.558 51.0021ZM119.816 51.0139C119.816 49.5204 118.841 48.6267 117.708 48.6267C116.575 48.6267 115.612 49.4852 115.612 51.0021C115.612 52.5191 116.575 53.4128 117.708 53.4128C118.841 53.4128 119.816 52.5308 119.816 51.0139ZM127.419 54.2477V50.6023C127.419 49.2853 126.728 48.615 125.685 48.615C124.632 48.615 123.906 49.297 123.906 50.6846V54.2477H122.875V47.8036H123.906V48.7208C124.314 48.0505 125.062 47.686 125.9 47.686C127.339 47.686 128.438 48.6032 128.438 50.4494V54.2477H127.419ZM134.862 52.4956C134.862 53.5539 133.967 54.3536 132.596 54.3536C131.146 54.3536 130.127 53.5304 130.059 52.3545H131.124C131.18 52.9777 131.713 53.4481 132.585 53.4481C133.401 53.4481 133.854 53.0247 133.854 52.4956C133.854 51.0609 130.183 51.8958 130.183 49.4969C130.183 48.5091 131.078 47.6977 132.46 47.6977C133.831 47.6977 134.738 48.4621 134.806 49.7204H133.775C133.729 49.0736 133.254 48.6032 132.426 48.6032C131.667 48.6032 131.214 48.9795 131.214 49.4969C131.214 51.0256 134.817 50.1907 134.862 52.4956ZM136.208 51.0021C136.208 48.9913 137.489 47.6977 139.154 47.6977C140.31 47.6977 141.103 48.3092 141.465 48.9795V47.8036H142.508V54.2477H141.465V53.0483C141.091 53.7421 140.287 54.3536 139.143 54.3536C137.489 54.3536 136.208 53.0012 136.208 51.0021ZM141.465 51.0139C141.465 49.5204 140.491 48.6267 139.358 48.6267C138.225 48.6267 137.262 49.4852 137.262 51.0021C137.262 52.5191 138.225 53.4128 139.358 53.4128C140.491 53.4128 141.465 52.5308 141.465 51.0139ZM144.14 51.0139C144.14 48.9913 145.398 47.6977 147.165 47.6977C148.706 47.6977 149.714 48.5209 150.032 49.8732H148.921C148.706 49.0971 148.083 48.6032 147.165 48.6032C146.032 48.6032 145.194 49.4381 145.194 51.0139C145.194 52.6132 146.032 53.4481 147.165 53.4481C148.083 53.4481 148.695 52.9895 148.921 52.1781H150.032C149.714 53.4598 148.706 54.3536 147.165 54.3536C145.398 54.3536 144.14 53.06 144.14 51.0139ZM151.909 52.4838V48.6855H151.105V47.8036H151.909V46.1808H152.94V47.8036H154.56V48.6855H152.94V52.4838C152.94 53.1188 153.167 53.3422 153.801 53.3422H154.56V54.2477H153.631C152.532 54.2477 151.909 53.7773 151.909 52.4838ZM156.085 54.2477V47.8036H157.116V54.2477H156.085ZM156.617 46.757C156.221 46.757 155.915 46.4395 155.915 46.0279C155.915 45.6163 156.221 45.2988 156.617 45.2988C156.991 45.2988 157.297 45.6163 157.297 46.0279C157.297 46.4395 156.991 46.757 156.617 46.757ZM165.04 51.0139C165.04 53.06 163.624 54.3536 161.857 54.3536C160.101 54.3536 158.764 53.06 158.764 51.0139C158.764 48.9795 160.146 47.6977 161.902 47.6977C163.669 47.6977 165.04 48.9795 165.04 51.0139ZM159.817 51.0139C159.817 52.6484 160.78 53.4128 161.857 53.4128C162.933 53.4128 163.987 52.6484 163.987 51.0139C163.987 49.3911 162.956 48.6267 161.891 48.6267C160.803 48.6267 159.817 49.3911 159.817 51.0139ZM171.214 54.2477V50.6023C171.214 49.2853 170.523 48.615 169.481 48.615C168.427 48.615 167.702 49.297 167.702 50.6846V54.2477H166.671V47.8036H167.702V48.7208C168.11 48.0505 168.858 47.686 169.696 47.686C171.135 47.686 172.234 48.6032 172.234 50.4494V54.2477H171.214ZM178.658 52.4956C178.658 53.5539 177.763 54.3536 176.392 54.3536C174.942 54.3536 173.922 53.5304 173.854 52.3545H174.919C174.976 52.9777 175.508 53.4481 176.381 53.4481C177.197 53.4481 177.65 53.0247 177.65 52.4956C177.65 51.0609 173.979 51.8958 173.979 49.4969C173.979 48.5091 174.874 47.6977 176.256 47.6977C177.627 47.6977 178.533 48.4621 178.601 49.7204H177.57C177.525 49.0736 177.049 48.6032 176.222 48.6032C175.463 48.6032 175.01 48.9795 175.01 49.4969C175.01 51.0256 178.613 50.1907 178.658 52.4956Z" fill="#333333"/>
<path d="M288.229 153.707H269.578L252.574 139.297L239.409 143.731L222.679 135.972H202.383L185.653 123.778L175.505 131.538L159.049 128.212L146.707 120.453L135.737 131.538H125.863L117.087 143.731L109.133 135.972H102.276L90.4829 128.212L79.5122 123.778L69.6387 128.212L61.8221 143.731L51.1257 151.172L41.7664 165.083L31.9614 167.537" stroke="#735DF3" stroke-width="1.5" stroke-linejoin="round"/>
</g>
</g>
<defs>
<filter id="filter0_d_4897_434" x="271" y="113" width="357" height="251" filterUnits="userSpaceOnUse" color-interpolation-filters="sRGB">
<feFlood flood-opacity="0" result="BackgroundImageFix"/>
<feColorMatrix in="SourceAlpha" type="matrix" values="0 0 0 0 0 0 0 0 0 0 0 0 0 0 0 0 0 0 127 0" result="hardAlpha"/>
<feOffset dx="3" dy="3"/>
<feGaussianBlur stdDeviation="12.5"/>
<feComposite in2="hardAlpha" operator="out"/>
<feColorMatrix type="matrix" values="0 0 0 0 0 0 0 0 0 0 0 0 0 0 0 0 0 0 0.25 0"/>
<feBlend mode="normal" in2="BackgroundImageFix" result="effect1_dropShadow_4897_434"/>
<feBlend mode="normal" in="SourceGraphic" in2="effect1_dropShadow_4897_434" result="shape"/>
</filter>
<filter id="filter1_d_4897_434" x="271" y="113" width="357" height="251" filterUnits="userSpaceOnUse" color-interpolation-filters="sRGB">
<feFlood flood-opacity="0" result="BackgroundImageFix"/>
<feColorMatrix in="SourceAlpha" type="matrix" values="0 0 0 0 0 0 0 0 0 0 0 0 0 0 0 0 0 0 127 0" result="hardAlpha"/>
<feOffset dx="3" dy="3"/>
<feGaussianBlur stdDeviation="12.5"/>
<feComposite in2="hardAlpha" operator="out"/>
<feColorMatrix type="matrix" values="0 0 0 0 0 0 0 0 0 0 0 0 0 0 0 0 0 0 0.25 0"/>
<feBlend mode="normal" in2="BackgroundImageFix" result="effect1_dropShadow_4897_434"/>
<feBlend mode="normal" in="SourceGraphic" in2="effect1_dropShadow_4897_434" result="shape"/>
</filter>
<filter id="filter2_d_4897_434" x="0" y="7" width="328" height="232" filterUnits="userSpaceOnUse" color-interpolation-filters="sRGB">
<feFlood flood-opacity="0" result="BackgroundImageFix"/>
<feColorMatrix in="SourceAlpha" type="matrix" values="0 0 0 0 0 0 0 0 0 0 0 0 0 0 0 0 0 0 127 0" result="hardAlpha"/>
<feOffset dx="3" dy="3"/>
<feGaussianBlur stdDeviation="12.5"/>
<feComposite in2="hardAlpha" operator="out"/>
<feColorMatrix type="matrix" values="0 0 0 0 0 0 0 0 0 0 0 0 0 0 0 0 0 0 0.25 0"/>
<feBlend mode="normal" in2="BackgroundImageFix" result="effect1_dropShadow_4897_434"/>
<feBlend mode="normal" in="SourceGraphic" in2="effect1_dropShadow_4897_434" result="shape"/>
</filter>
<clipPath id="clip0_4897_434">
<rect x="293" y="135" width="307" height="201" rx="10" fill="white"/>
</clipPath>
<clipPath id="clip1_4897_434">
<rect x="22" y="29" width="278" height="182" rx="10" fill="white"/>
</clipPath>
</defs>
</svg>
